G04*
G04 #@! TF.GenerationSoftware,Altium Limited,Altium Designer,21.6.4 (81)*
G04*
G04 Layer_Color=255*
%FSLAX25Y25*%
%MOIN*%
G70*
G04*
G04 #@! TF.SameCoordinates,808F6F8F-79D6-47D4-AB02-9EDB2B229DA2*
G04*
G04*
G04 #@! TF.FilePolarity,Positive*
G04*
G01*
G75*
%ADD13R,0.11811X0.11811*%
%ADD14C,0.11811*%
%ADD15P,0.12784X8X112.5*%
%ADD16C,0.09843*%
%ADD17P,0.10653X8X292.5*%
%ADD18C,0.07400*%
%ADD19R,0.06496X0.06496*%
%ADD20C,0.06496*%
%ADD21C,0.06000*%
%ADD22P,0.05629X8X22.5*%
%ADD23C,0.08000*%
%ADD24P,0.08659X8X202.5*%
%ADD25P,0.08659X8X292.5*%
%ADD26C,0.07087*%
%ADD27P,0.07671X8X292.5*%
D13*
X8189Y23622D02*
D03*
X7874Y145669D02*
D03*
D14*
X97181Y23622D02*
D03*
X96866Y145669D02*
D03*
D15*
X220472Y90551D02*
D03*
Y35433D02*
D03*
D16*
X145669Y87598D02*
D03*
Y50197D02*
D03*
D17*
Y117126D02*
D03*
Y20669D02*
D03*
D18*
X306024Y74803D02*
D03*
X316024D02*
D03*
D19*
X58240Y90551D02*
D03*
X91366Y102362D02*
D03*
Y66929D02*
D03*
X58240Y78740D02*
D03*
D20*
X98240Y90551D02*
D03*
X51366Y102362D02*
D03*
Y66929D02*
D03*
X98240Y78740D02*
D03*
D21*
X240158Y45433D02*
D03*
Y25433D02*
D03*
Y35433D02*
D03*
Y100551D02*
D03*
Y80551D02*
D03*
Y90551D02*
D03*
D22*
X295590Y74803D02*
D03*
X255591D02*
D03*
D23*
X342520Y102362D02*
D03*
Y82677D02*
D03*
X23622Y62992D02*
D03*
Y82677D02*
D03*
X192913Y145669D02*
D03*
X212598D02*
D03*
D24*
X342520Y62992D02*
D03*
X23622Y102362D02*
D03*
D25*
X232283Y145669D02*
D03*
D26*
X316929Y128937D02*
D03*
X311024Y99410D02*
D03*
X309055Y13780D02*
D03*
X314961Y43307D02*
D03*
X187008Y87598D02*
D03*
X192913Y117126D02*
D03*
X187008Y20669D02*
D03*
X192913Y50197D02*
D03*
X279528Y110236D02*
D03*
Y41339D02*
D03*
D27*
Y129921D02*
D03*
Y21654D02*
D03*
M02*
