G04*
G04 #@! TF.GenerationSoftware,Altium Limited,Altium Designer,21.6.4 (81)*
G04*
G04 Layer_Physical_Order=2*
G04 Layer_Color=16711680*
%FSLAX25Y25*%
%MOIN*%
G70*
G04*
G04 #@! TF.SameCoordinates,808F6F8F-79D6-47D4-AB02-9EDB2B229DA2*
G04*
G04*
G04 #@! TF.FilePolarity,Positive*
G04*
G01*
G75*
%ADD10C,0.09843*%
%ADD11C,0.07874*%
%ADD12C,0.03150*%
%ADD13R,0.11811X0.11811*%
%ADD14C,0.11811*%
%ADD15P,0.12784X8X112.5*%
%ADD16C,0.09843*%
%ADD17P,0.10653X8X292.5*%
%ADD18C,0.07400*%
%ADD19R,0.06496X0.06496*%
%ADD20C,0.06496*%
%ADD21C,0.06000*%
%ADD22P,0.05629X8X22.5*%
%ADD23C,0.08000*%
%ADD24P,0.08659X8X202.5*%
%ADD25P,0.08659X8X292.5*%
%ADD26C,0.07087*%
%ADD27P,0.07671X8X292.5*%
%ADD28C,0.05000*%
G36*
X31490Y171629D02*
X31496Y171626D01*
Y98425D01*
X27559Y94488D01*
X354D01*
X0Y94842D01*
X28Y171629D01*
X31490D01*
D02*
G37*
G36*
X374009Y171297D02*
X372441Y86178D01*
X374009Y357D01*
X373659Y0D01*
X33904D01*
Y66929D01*
X33721Y67851D01*
X33199Y68632D01*
X29262Y72569D01*
X28481Y73091D01*
X27559Y73275D01*
X0D01*
Y91760D01*
X354Y92080D01*
X27559D01*
X28481Y92263D01*
X29262Y92785D01*
X33199Y96722D01*
X33721Y97504D01*
X33904Y98425D01*
Y171626D01*
X33927Y171654D01*
X373659D01*
X374009Y171297D01*
D02*
G37*
G36*
X31496Y66929D02*
Y0D01*
X0D01*
Y70866D01*
X27559D01*
X31496Y66929D01*
D02*
G37*
%LPC*%
G36*
X14780Y152575D02*
X8374D01*
Y146169D01*
X14780D01*
Y152575D01*
D02*
G37*
G36*
X7374D02*
X969D01*
Y146169D01*
X7374D01*
Y152575D01*
D02*
G37*
G36*
X14780Y145169D02*
X8374D01*
Y138764D01*
X14780D01*
Y145169D01*
D02*
G37*
G36*
X7374D02*
X969D01*
Y138764D01*
X7374D01*
Y145169D01*
D02*
G37*
G36*
X26122Y107362D02*
X24122D01*
Y102862D01*
X28622D01*
Y104862D01*
X26122Y107362D01*
D02*
G37*
G36*
X23122D02*
X21122D01*
X18622Y104862D01*
Y102862D01*
X23122D01*
Y107362D01*
D02*
G37*
G36*
X28622Y101862D02*
X24122D01*
Y97362D01*
X26122D01*
X28622Y99862D01*
Y101862D01*
D02*
G37*
G36*
X23122D02*
X18622D01*
Y99862D01*
X21122Y97362D01*
X23122D01*
Y101862D01*
D02*
G37*
G36*
X224410Y168736D02*
X137795D01*
X136367Y168595D01*
X134994Y168179D01*
X133729Y167503D01*
X132620Y166592D01*
X113107Y147079D01*
X112645Y147270D01*
Y157480D01*
X112461Y158402D01*
X111939Y159183D01*
X111158Y159705D01*
X110236Y159889D01*
X43307D01*
X42385Y159705D01*
X41604Y159183D01*
X41082Y158402D01*
X40899Y157480D01*
Y86614D01*
X41082Y85693D01*
X41572Y84960D01*
X41627Y84788D01*
Y84503D01*
X41572Y84332D01*
X41082Y83599D01*
X40899Y82677D01*
Y11811D01*
X41082Y10889D01*
X41604Y10108D01*
X42385Y9586D01*
X43307Y9403D01*
X110236D01*
X111158Y9586D01*
X111939Y10108D01*
X112461Y10889D01*
X112645Y11811D01*
Y27559D01*
X112461Y28481D01*
X111939Y29262D01*
X85017Y56185D01*
X85208Y56647D01*
X94488D01*
X95410Y56830D01*
X96191Y57352D01*
X96713Y58133D01*
X96897Y59055D01*
Y61319D01*
X96976D01*
Y68256D01*
X97438Y68447D01*
X128218Y37667D01*
X129000Y37145D01*
X129921Y36962D01*
X160420D01*
X171525Y25856D01*
X172307Y25334D01*
X173228Y25151D01*
X184683D01*
X184817Y24651D01*
X184218Y24305D01*
X183372Y23459D01*
X182774Y22423D01*
X182465Y21267D01*
Y21169D01*
X187008D01*
X191551D01*
Y21267D01*
X191242Y22423D01*
X190643Y23459D01*
X189797Y24305D01*
X189199Y24651D01*
X189333Y25151D01*
X224410D01*
X225331Y25334D01*
X226113Y25856D01*
X229344Y29088D01*
X237487D01*
X237629Y28787D01*
X237655Y28588D01*
X236957Y27889D01*
X236430Y26977D01*
X236157Y25960D01*
Y25933D01*
X240158D01*
X244158D01*
Y25960D01*
X243885Y26977D01*
X243358Y27889D01*
X242614Y28634D01*
X241701Y29160D01*
X240684Y29433D01*
X240424D01*
X240157Y29933D01*
X240249Y30071D01*
X240863D01*
X242227Y30436D01*
X243450Y31142D01*
X244448Y32141D01*
X245154Y33363D01*
X245520Y34727D01*
Y36139D01*
X245154Y37503D01*
X244519Y38603D01*
X244715Y39103D01*
X272811D01*
X273083Y38831D01*
X274043Y38044D01*
X274962Y37553D01*
X275763Y36751D01*
X276730Y36105D01*
X277805Y35660D01*
X278946Y35433D01*
X280109D01*
X281250Y35660D01*
X282325Y36105D01*
X283292Y36751D01*
X283518Y36977D01*
X322835D01*
X324069Y37099D01*
X325257Y37459D01*
X326351Y38044D01*
X327310Y38831D01*
X345109Y56630D01*
X345701D01*
X348882Y59811D01*
Y66173D01*
X345701Y69354D01*
X339339D01*
X336157Y66173D01*
Y65582D01*
X320213Y49637D01*
X280181D01*
X279909Y49909D01*
X278950Y50696D01*
X277855Y51281D01*
X276668Y51641D01*
X275433Y51763D01*
X259561D01*
Y71331D01*
X260553Y72322D01*
Y77284D01*
X258072Y79765D01*
X253110D01*
X250940Y77596D01*
X250440Y77803D01*
Y78740D01*
X250257Y79662D01*
X249734Y80443D01*
X246050Y84127D01*
X245760Y84322D01*
X245490Y84544D01*
X245372Y84581D01*
X245269Y84649D01*
X244926Y84718D01*
X244591Y84820D01*
X244468Y84809D01*
X244347Y84833D01*
X244004Y84764D01*
X243656Y84731D01*
X243592Y84712D01*
X243584Y84708D01*
X243450Y84842D01*
X242227Y85548D01*
X240863Y85913D01*
X239452D01*
X238088Y85548D01*
X237027Y84936D01*
X236890Y85004D01*
X236575Y85024D01*
X236266Y85086D01*
X226018Y85086D01*
X225827Y85548D01*
X227378Y87098D01*
Y90051D01*
X220472D01*
X213567D01*
Y87098D01*
X215118Y85548D01*
X214926Y85086D01*
X209659D01*
X180571Y114173D01*
X202490Y136092D01*
X203013Y136874D01*
X203196Y137795D01*
X203196Y149606D01*
X203012Y150528D01*
X202490Y151309D01*
X200163Y153637D01*
X200355Y154099D01*
X221378D01*
X224965Y150512D01*
Y145669D01*
X225105Y144241D01*
X225522Y142869D01*
X226198Y141603D01*
X227108Y140494D01*
Y140494D01*
X228217Y139584D01*
X229483Y138908D01*
X230856Y138491D01*
X232283Y138351D01*
X233711Y138491D01*
X235084Y138908D01*
X236350Y139584D01*
X237459Y140494D01*
X238369Y141603D01*
X239045Y142869D01*
X239461Y144241D01*
X239602Y145669D01*
Y153543D01*
X239461Y154971D01*
X239045Y156344D01*
X238369Y157609D01*
X237459Y158718D01*
X229585Y166592D01*
X228475Y167503D01*
X227210Y168179D01*
X225837Y168595D01*
X224410Y168736D01*
D02*
G37*
G36*
X213257Y150669D02*
X213098D01*
Y146169D01*
X217598D01*
Y146327D01*
X217258Y147599D01*
X216599Y148739D01*
X215669Y149670D01*
X214528Y150329D01*
X213257Y150669D01*
D02*
G37*
G36*
X212098D02*
X211940D01*
X210668Y150329D01*
X209528Y149670D01*
X208597Y148739D01*
X207939Y147599D01*
X207598Y146327D01*
Y146169D01*
X212098D01*
Y150669D01*
D02*
G37*
G36*
X217598Y145169D02*
X213098D01*
Y140669D01*
X213257D01*
X214528Y141010D01*
X215669Y141668D01*
X216599Y142599D01*
X217258Y143739D01*
X217598Y145011D01*
Y145169D01*
D02*
G37*
G36*
X212098D02*
X207598D01*
Y145011D01*
X207939Y143739D01*
X208597Y142599D01*
X209528Y141668D01*
X210668Y141010D01*
X211940Y140669D01*
X212098D01*
Y145169D01*
D02*
G37*
G36*
X193511Y121669D02*
X193413D01*
Y117626D01*
X197457D01*
Y117724D01*
X197147Y118880D01*
X196549Y119916D01*
X195703Y120762D01*
X194667Y121360D01*
X193511Y121669D01*
D02*
G37*
G36*
X192413D02*
X192315D01*
X191160Y121360D01*
X190124Y120762D01*
X189278Y119916D01*
X188680Y118880D01*
X188370Y117724D01*
Y117626D01*
X192413D01*
Y121669D01*
D02*
G37*
G36*
X197457Y116626D02*
X193413D01*
Y112583D01*
X193511D01*
X194667Y112892D01*
X195703Y113490D01*
X196549Y114336D01*
X197147Y115372D01*
X197457Y116528D01*
Y116626D01*
D02*
G37*
G36*
X192413D02*
X188370D01*
Y116528D01*
X188680Y115372D01*
X189278Y114336D01*
X190124Y113490D01*
X191160Y112892D01*
X192315Y112583D01*
X192413D01*
Y116626D01*
D02*
G37*
G36*
X280126Y114779D02*
X280028D01*
Y110736D01*
X284071D01*
Y110834D01*
X283761Y111990D01*
X283163Y113026D01*
X282317Y113872D01*
X281281Y114470D01*
X280126Y114779D01*
D02*
G37*
G36*
X279028D02*
X278929D01*
X277774Y114470D01*
X276738Y113872D01*
X275892Y113026D01*
X275294Y111990D01*
X274984Y110834D01*
Y110736D01*
X279028D01*
Y114779D01*
D02*
G37*
G36*
X284071Y109736D02*
X280028D01*
Y105693D01*
X280126D01*
X281281Y106002D01*
X282317Y106601D01*
X283163Y107447D01*
X283761Y108483D01*
X284071Y109638D01*
Y109736D01*
D02*
G37*
G36*
X279028D02*
X274984D01*
Y109638D01*
X275294Y108483D01*
X275892Y107447D01*
X276738Y106601D01*
X277774Y106002D01*
X278929Y105693D01*
X279028D01*
Y109736D01*
D02*
G37*
G36*
X311622Y103953D02*
X311524D01*
Y99910D01*
X315567D01*
Y100008D01*
X315257Y101163D01*
X314659Y102199D01*
X313813Y103045D01*
X312777Y103643D01*
X311622Y103953D01*
D02*
G37*
G36*
X310524D02*
X310425D01*
X309270Y103643D01*
X308234Y103045D01*
X307388Y102199D01*
X306790Y101163D01*
X306480Y100008D01*
Y99910D01*
X310524D01*
Y103953D01*
D02*
G37*
G36*
X315567Y98909D02*
X311524D01*
Y94866D01*
X311622D01*
X312777Y95176D01*
X313813Y95774D01*
X314659Y96620D01*
X315257Y97656D01*
X315567Y98811D01*
Y98909D01*
D02*
G37*
G36*
X310524D02*
X306480D01*
Y98811D01*
X306790Y97656D01*
X307388Y96620D01*
X308234Y95774D01*
X309270Y95176D01*
X310425Y94866D01*
X310524D01*
Y98909D01*
D02*
G37*
G36*
X223925Y97457D02*
X220972D01*
Y91051D01*
X227378D01*
Y94004D01*
X223925Y97457D01*
D02*
G37*
G36*
X219972D02*
X217020D01*
X213567Y94004D01*
Y91051D01*
X219972D01*
Y97457D01*
D02*
G37*
G36*
X244158Y90051D02*
X240657D01*
Y86551D01*
X240684D01*
X241701Y86824D01*
X242614Y87350D01*
X243358Y88095D01*
X243885Y89007D01*
X244158Y90025D01*
Y90051D01*
D02*
G37*
G36*
X239657D02*
X236157D01*
Y90025D01*
X236430Y89007D01*
X236957Y88095D01*
X237701Y87350D01*
X238614Y86824D01*
X239631Y86551D01*
X239657D01*
Y90051D01*
D02*
G37*
G36*
X343178Y87677D02*
X343020D01*
Y83177D01*
X347520D01*
Y83335D01*
X347179Y84607D01*
X346521Y85747D01*
X345590Y86678D01*
X344450Y87336D01*
X343178Y87677D01*
D02*
G37*
G36*
X342020D02*
X341861D01*
X340590Y87336D01*
X339450Y86678D01*
X338519Y85747D01*
X337860Y84607D01*
X337520Y83335D01*
Y83177D01*
X342020D01*
Y87677D01*
D02*
G37*
G36*
X24280D02*
X24122D01*
Y83177D01*
X28622D01*
Y83335D01*
X28281Y84607D01*
X27623Y85747D01*
X26692Y86678D01*
X25552Y87336D01*
X24280Y87677D01*
D02*
G37*
G36*
X23122D02*
X22964D01*
X21692Y87336D01*
X20552Y86678D01*
X19621Y85747D01*
X18963Y84607D01*
X18622Y83335D01*
Y83177D01*
X23122D01*
Y87677D01*
D02*
G37*
G36*
X269528Y136251D02*
X268293Y136129D01*
X267105Y135769D01*
X266011Y135184D01*
X265052Y134397D01*
X265052Y134397D01*
X235682Y105027D01*
X234894Y104068D01*
X234310Y102973D01*
X233949Y101786D01*
X233828Y100551D01*
X233949Y99316D01*
X234310Y98129D01*
X234894Y97035D01*
X235682Y96075D01*
X236641Y95288D01*
X237735Y94703D01*
X238138Y94581D01*
X238200Y94040D01*
X237701Y93752D01*
X236957Y93007D01*
X236430Y92095D01*
X236157Y91078D01*
Y91051D01*
X240158D01*
X244158D01*
Y91078D01*
X243885Y92095D01*
X243358Y93007D01*
X242614Y93752D01*
X242115Y94040D01*
X242177Y94581D01*
X242580Y94703D01*
X243674Y95288D01*
X244633Y96075D01*
X272149Y123592D01*
X313323D01*
X334592Y102323D01*
X311548Y79279D01*
X311170Y78818D01*
X310549Y78851D01*
X309888Y79512D01*
X308895Y80175D01*
X307792Y80632D01*
X306621Y80865D01*
X305427D01*
X304255Y80632D01*
X303152Y80175D01*
X302159Y79512D01*
X301421Y78774D01*
X299063D01*
X298072Y79765D01*
X293109D01*
X290628Y77284D01*
Y72322D01*
X293109Y69841D01*
X298072D01*
X299063Y70832D01*
X301421D01*
X302159Y70094D01*
X303152Y69431D01*
X304255Y68974D01*
X305427Y68741D01*
X306621D01*
X307792Y68974D01*
X308895Y69431D01*
X309888Y70094D01*
X310549Y70756D01*
X311170Y70788D01*
X311548Y70327D01*
X312507Y69540D01*
X313601Y68955D01*
X314789Y68595D01*
X316024Y68474D01*
X317259Y68595D01*
X318446Y68955D01*
X319540Y69540D01*
X320499Y70327D01*
X346932Y96760D01*
X346933Y96760D01*
X347720Y97720D01*
X348305Y98814D01*
X348665Y100001D01*
X348786Y101236D01*
X348786Y101236D01*
Y101256D01*
X348882Y101736D01*
Y102989D01*
X348775Y103527D01*
X348665Y104644D01*
X348305Y105832D01*
X347720Y106926D01*
X346933Y107885D01*
X346932Y107885D01*
X321405Y133413D01*
X320864Y133856D01*
X320421Y134397D01*
X319461Y135184D01*
X318367Y135769D01*
X317180Y136129D01*
X315945Y136251D01*
X269528D01*
X269528Y136251D01*
D02*
G37*
G36*
X347520Y82177D02*
X343020D01*
Y77677D01*
X343178D01*
X344450Y78018D01*
X345590Y78676D01*
X346521Y79607D01*
X347179Y80747D01*
X347520Y82019D01*
Y82177D01*
D02*
G37*
G36*
X342020D02*
X337520D01*
Y82019D01*
X337860Y80747D01*
X338519Y79607D01*
X339450Y78676D01*
X340590Y78018D01*
X341861Y77677D01*
X342020D01*
Y82177D01*
D02*
G37*
G36*
X28622Y82177D02*
X24122D01*
Y77677D01*
X24280D01*
X25552Y78018D01*
X26692Y78676D01*
X27623Y79607D01*
X28281Y80747D01*
X28622Y82019D01*
Y82177D01*
D02*
G37*
G36*
X23122D02*
X18622D01*
Y82019D01*
X18963Y80747D01*
X19621Y79607D01*
X20552Y78676D01*
X21692Y78018D01*
X22964Y77677D01*
X23122D01*
Y82177D01*
D02*
G37*
G36*
X268216Y62545D02*
Y59555D01*
X271206D01*
X270978Y60406D01*
X270517Y61204D01*
X269866Y61856D01*
X269068Y62317D01*
X268216Y62545D01*
D02*
G37*
G36*
X267216D02*
X266366Y62317D01*
X265567Y61856D01*
X264916Y61204D01*
X264455Y60406D01*
X264227Y59555D01*
X267216D01*
Y62545D01*
D02*
G37*
G36*
X271206Y58555D02*
X268216D01*
Y55566D01*
X269068Y55794D01*
X269866Y56254D01*
X270517Y56906D01*
X270978Y57704D01*
X271206Y58555D01*
D02*
G37*
G36*
X267216D02*
X264227D01*
X264455Y57704D01*
X264916Y56906D01*
X265567Y56254D01*
X266366Y55794D01*
X267216Y55566D01*
Y58555D01*
D02*
G37*
G36*
X281799Y26197D02*
X280028D01*
Y22153D01*
X284071D01*
Y23925D01*
X281799Y26197D01*
D02*
G37*
G36*
X279028D02*
X277256D01*
X274984Y23925D01*
Y22153D01*
X279028D01*
Y26197D01*
D02*
G37*
G36*
X244158Y24933D02*
X240657D01*
Y21433D01*
X240684D01*
X241701Y21706D01*
X242614Y22232D01*
X243358Y22977D01*
X243885Y23889D01*
X244158Y24906D01*
Y24933D01*
D02*
G37*
G36*
X239657D02*
X236157D01*
Y24906D01*
X236430Y23889D01*
X236957Y22977D01*
X237701Y22232D01*
X238614Y21706D01*
X239631Y21433D01*
X239657D01*
Y24933D01*
D02*
G37*
G36*
X148630Y26591D02*
X146169D01*
Y21169D01*
X151591D01*
Y23630D01*
X148630Y26591D01*
D02*
G37*
G36*
X145169D02*
X142709D01*
X139748Y23630D01*
Y21169D01*
X145169D01*
Y26591D01*
D02*
G37*
G36*
X284071Y21154D02*
X280028D01*
Y17110D01*
X281799D01*
X284071Y19382D01*
Y21154D01*
D02*
G37*
G36*
X279028D02*
X274984D01*
Y19382D01*
X277256Y17110D01*
X279028D01*
Y21154D01*
D02*
G37*
G36*
X191551Y20169D02*
X187508D01*
Y16126D01*
X187606D01*
X188761Y16436D01*
X189797Y17034D01*
X190643Y17880D01*
X191242Y18916D01*
X191551Y20071D01*
Y20169D01*
D02*
G37*
G36*
X186508D02*
X182465D01*
Y20071D01*
X182774Y18916D01*
X183372Y17880D01*
X184218Y17034D01*
X185254Y16436D01*
X186410Y16126D01*
X186508D01*
Y20169D01*
D02*
G37*
G36*
X151591D02*
X146169D01*
Y14748D01*
X148630D01*
X151591Y17709D01*
Y20169D01*
D02*
G37*
G36*
X145169D02*
X139748D01*
Y17709D01*
X142709Y14748D01*
X145169D01*
Y20169D01*
D02*
G37*
G36*
X309653Y18323D02*
X309555D01*
Y14279D01*
X313598D01*
Y14378D01*
X313289Y15533D01*
X312691Y16569D01*
X311845Y17415D01*
X310809Y18013D01*
X309653Y18323D01*
D02*
G37*
G36*
X308555D02*
X308457D01*
X307301Y18013D01*
X306265Y17415D01*
X305420Y16569D01*
X304821Y15533D01*
X304512Y14378D01*
Y14279D01*
X308555D01*
Y18323D01*
D02*
G37*
G36*
X313598Y13280D02*
X309555D01*
Y9236D01*
X309653D01*
X310809Y9546D01*
X311845Y10144D01*
X312691Y10990D01*
X313289Y12026D01*
X313598Y13181D01*
Y13280D01*
D02*
G37*
G36*
X308555D02*
X304512D01*
Y13181D01*
X304821Y12026D01*
X305420Y10990D01*
X306265Y10144D01*
X307301Y9546D01*
X308457Y9236D01*
X308555D01*
Y13280D01*
D02*
G37*
%LPD*%
G36*
X173853Y153637D02*
X156483Y136267D01*
X123648D01*
X123457Y136729D01*
X140827Y154099D01*
X173661D01*
X173853Y153637D01*
D02*
G37*
G36*
X196850Y153543D02*
X200787Y149606D01*
X200787Y137795D01*
X177165Y114173D01*
X208661Y82677D01*
X215945D01*
X216339Y82284D01*
X224606D01*
X225000Y82677D01*
X236266Y82677D01*
X236516Y82244D01*
X236430Y82095D01*
X236157Y81078D01*
Y81051D01*
X240158D01*
X244158D01*
Y81078D01*
X243885Y82095D01*
X244283Y82405D01*
X244347Y82424D01*
X248031Y78740D01*
Y70866D01*
X192913D01*
X157480Y106299D01*
X102362D01*
X96076Y100013D01*
X95614Y100205D01*
Y101862D01*
X91866D01*
Y98114D01*
X94488D01*
Y94733D01*
X93751Y93996D01*
X93012Y92717D01*
X92630Y91290D01*
Y89813D01*
X93012Y88386D01*
X93751Y87106D01*
X94488Y86369D01*
Y82922D01*
X93751Y82185D01*
X93012Y80906D01*
X92630Y79479D01*
Y78002D01*
X93012Y76575D01*
X93751Y75295D01*
X94488Y74558D01*
Y71177D01*
X91866D01*
Y66929D01*
Y62681D01*
X94488D01*
Y59055D01*
X82677D01*
X74803Y66929D01*
X74803Y102362D01*
X106299Y133858D01*
X108019D01*
X108088Y133729D01*
X108998Y132620D01*
X110107Y131710D01*
X111372Y131034D01*
X112745Y130617D01*
X114173Y130477D01*
X115601Y130617D01*
X116974Y131034D01*
X118239Y131710D01*
X119348Y132620D01*
X120586Y133858D01*
X157480D01*
X177165Y153543D01*
X196850Y153543D01*
D02*
G37*
G36*
X110236Y144209D02*
X108998Y142970D01*
X108998Y142970D01*
X108088Y141861D01*
X107412Y140596D01*
X106995Y139223D01*
X106915Y138411D01*
X66929Y98425D01*
Y90551D01*
X62992Y86614D01*
X62488D01*
Y90051D01*
X58240D01*
X53992D01*
Y86614D01*
X43307D01*
Y157480D01*
X110236D01*
Y144209D01*
D02*
G37*
G36*
X110236Y98425D02*
X137795Y70866D01*
X161417D01*
X177165Y55118D01*
X191794D01*
X191860Y54618D01*
X191160Y54431D01*
X190124Y53832D01*
X189278Y52987D01*
X188680Y51951D01*
X188370Y50795D01*
Y50697D01*
X192913D01*
X197457D01*
Y50795D01*
X197147Y51951D01*
X196549Y52987D01*
X195703Y53832D01*
X194667Y54431D01*
X193967Y54618D01*
X194033Y55118D01*
X204724D01*
X216535Y43307D01*
X224410D01*
X228346Y39370D01*
X237977D01*
X238110Y38870D01*
X237701Y38634D01*
X236957Y37889D01*
X236430Y36977D01*
X236157Y35960D01*
Y35933D01*
X240158D01*
Y34933D01*
X236157D01*
Y34907D01*
X236430Y33889D01*
X236957Y32977D01*
X237701Y32232D01*
X238110Y31996D01*
X237977Y31496D01*
X228346D01*
X224410Y27559D01*
X173228D01*
X161417Y39370D01*
X129921D01*
X96976Y72315D01*
Y72539D01*
X96897D01*
Y74185D01*
X97392Y74570D01*
X97681Y74492D01*
X97740D01*
Y78740D01*
Y82988D01*
X97681D01*
X97392Y82911D01*
X96897Y83296D01*
Y85996D01*
X97392Y86381D01*
X97681Y86303D01*
X97740D01*
Y90551D01*
Y94799D01*
X97681D01*
X97392Y94722D01*
X96897Y95107D01*
Y96752D01*
X96976D01*
Y96976D01*
X98425Y98425D01*
X110236Y98425D01*
D02*
G37*
G36*
X66929Y78740D02*
Y70866D01*
X110236Y27559D01*
Y11811D01*
X43307D01*
Y82677D01*
X53992D01*
Y79240D01*
X58240D01*
X62488D01*
Y82677D01*
X62992D01*
X66929Y78740D01*
D02*
G37*
G36*
X72395Y99831D02*
X72395Y69460D01*
X71933Y69269D01*
X69338Y71864D01*
Y78740D01*
X69154Y79662D01*
X68632Y80443D01*
X64737Y84338D01*
X64672Y84534D01*
Y84757D01*
X64737Y84953D01*
X68632Y88848D01*
X69154Y89630D01*
X69338Y90551D01*
Y97428D01*
X71933Y100023D01*
X72395Y99831D01*
D02*
G37*
G36*
X191210Y69163D02*
X191992Y68641D01*
X192913Y68458D01*
X248031D01*
X248953Y68641D01*
X249734Y69163D01*
X250257Y69944D01*
X250440Y70866D01*
Y71803D01*
X250940Y72010D01*
X251620Y71331D01*
Y51763D01*
X240158D01*
X238923Y51641D01*
X237735Y51281D01*
X236641Y50696D01*
X235682Y49909D01*
X234894Y48950D01*
X234310Y47855D01*
X233949Y46668D01*
X233828Y45433D01*
X233949Y44198D01*
X234310Y43011D01*
X234701Y42279D01*
X234401Y41779D01*
X229344D01*
X226113Y45010D01*
X225331Y45532D01*
X224410Y45716D01*
X217533D01*
X206428Y56821D01*
X205646Y57343D01*
X204724Y57527D01*
X194033D01*
X193724Y57465D01*
X193410Y57445D01*
X193267Y57374D01*
X193111Y57343D01*
X192913Y57211D01*
X192716Y57343D01*
X192560Y57374D01*
X192417Y57445D01*
X192103Y57465D01*
X191794Y57527D01*
X178163D01*
X163120Y72569D01*
X162339Y73091D01*
X161417Y73275D01*
X138793D01*
X111939Y100128D01*
X111158Y100650D01*
X110236Y100834D01*
X100956Y100834D01*
X100765Y101296D01*
X103360Y103891D01*
X156483D01*
X191210Y69163D01*
D02*
G37*
%LPC*%
G36*
X193572Y150669D02*
X193413D01*
Y146169D01*
X197913D01*
Y146327D01*
X197573Y147599D01*
X196914Y148739D01*
X195984Y149670D01*
X194843Y150329D01*
X193572Y150669D01*
D02*
G37*
G36*
X192413D02*
X192255D01*
X190983Y150329D01*
X189843Y149670D01*
X188912Y148739D01*
X188254Y147599D01*
X187913Y146327D01*
Y146169D01*
X192413D01*
Y150669D01*
D02*
G37*
G36*
X197913Y145169D02*
X193413D01*
Y140669D01*
X193572D01*
X194843Y141010D01*
X195984Y141668D01*
X196914Y142599D01*
X197573Y143739D01*
X197913Y145011D01*
Y145169D01*
D02*
G37*
G36*
X192413D02*
X187913D01*
Y145011D01*
X188254Y143739D01*
X188912Y142599D01*
X189843Y141668D01*
X190983Y141010D01*
X192255Y140669D01*
X192413D01*
Y145169D01*
D02*
G37*
G36*
X148630Y123047D02*
X146169D01*
Y117626D01*
X151591D01*
Y120087D01*
X148630Y123047D01*
D02*
G37*
G36*
X145169D02*
X142709D01*
X139748Y120087D01*
Y117626D01*
X145169D01*
Y123047D01*
D02*
G37*
G36*
X151591Y116626D02*
X146169D01*
Y111205D01*
X148630D01*
X151591Y114165D01*
Y116626D01*
D02*
G37*
G36*
X145169D02*
X139748D01*
Y114165D01*
X142709Y111205D01*
X145169D01*
Y116626D01*
D02*
G37*
G36*
X95614Y106610D02*
X91866D01*
Y102862D01*
X95614D01*
Y106610D01*
D02*
G37*
G36*
X90866D02*
X87118D01*
Y102862D01*
X90866D01*
Y106610D01*
D02*
G37*
G36*
Y101862D02*
X87118D01*
Y98114D01*
X90866D01*
Y101862D01*
D02*
G37*
G36*
X187606Y92142D02*
X187508D01*
Y88098D01*
X191551D01*
Y88197D01*
X191242Y89352D01*
X190643Y90388D01*
X189797Y91234D01*
X188761Y91832D01*
X187606Y92142D01*
D02*
G37*
G36*
X186508D02*
X186410D01*
X185254Y91832D01*
X184218Y91234D01*
X183372Y90388D01*
X182774Y89352D01*
X182465Y88197D01*
Y88098D01*
X186508D01*
Y92142D01*
D02*
G37*
G36*
X191551Y87098D02*
X187508D01*
Y83055D01*
X187606D01*
X188761Y83365D01*
X189797Y83963D01*
X190643Y84809D01*
X191242Y85845D01*
X191551Y87000D01*
Y87098D01*
D02*
G37*
G36*
X186508D02*
X182465D01*
Y87000D01*
X182774Y85845D01*
X183372Y84809D01*
X184218Y83963D01*
X185254Y83365D01*
X186410Y83055D01*
X186508D01*
Y87098D01*
D02*
G37*
G36*
X244158Y80051D02*
X240657D01*
Y76551D01*
X240684D01*
X241701Y76824D01*
X242614Y77350D01*
X243358Y78095D01*
X243885Y79007D01*
X244158Y80025D01*
Y80051D01*
D02*
G37*
G36*
X239657D02*
X236157D01*
Y80025D01*
X236430Y79007D01*
X236957Y78095D01*
X237701Y77350D01*
X238614Y76824D01*
X239631Y76551D01*
X239657D01*
Y80051D01*
D02*
G37*
G36*
X90866Y71177D02*
X87118D01*
Y67429D01*
X90866D01*
Y71177D01*
D02*
G37*
G36*
Y66429D02*
X87118D01*
Y62681D01*
X90866D01*
Y66429D01*
D02*
G37*
G36*
X97546Y152575D02*
X97366D01*
Y146169D01*
X103772D01*
Y146349D01*
X103506Y147684D01*
X102986Y148940D01*
X102230Y150071D01*
X101268Y151033D01*
X100137Y151789D01*
X98880Y152309D01*
X97546Y152575D01*
D02*
G37*
G36*
X96366D02*
X96186D01*
X94852Y152309D01*
X93595Y151789D01*
X92464Y151033D01*
X91502Y150071D01*
X90747Y148940D01*
X90226Y147684D01*
X89961Y146349D01*
Y146169D01*
X96366D01*
Y152575D01*
D02*
G37*
G36*
X103772Y145169D02*
X97366D01*
Y138764D01*
X97546D01*
X98880Y139029D01*
X100137Y139550D01*
X101268Y140305D01*
X102230Y141267D01*
X102986Y142398D01*
X103506Y143655D01*
X103772Y144989D01*
Y145169D01*
D02*
G37*
G36*
X96366D02*
X89961D01*
Y144989D01*
X90226Y143655D01*
X90747Y142398D01*
X91502Y141267D01*
X92464Y140305D01*
X93595Y139550D01*
X94852Y139029D01*
X96186Y138764D01*
X96366D01*
Y145169D01*
D02*
G37*
G36*
X51925Y106610D02*
X51866D01*
Y102862D01*
X55614D01*
Y102921D01*
X55325Y104002D01*
X54765Y104971D01*
X53974Y105762D01*
X53006Y106321D01*
X51925Y106610D01*
D02*
G37*
G36*
X50866D02*
X50807D01*
X49727Y106321D01*
X48758Y105762D01*
X47967Y104971D01*
X47408Y104002D01*
X47118Y102921D01*
Y102862D01*
X50866D01*
Y106610D01*
D02*
G37*
G36*
X55614Y101862D02*
X51866D01*
Y98114D01*
X51925D01*
X53006Y98404D01*
X53974Y98963D01*
X54765Y99754D01*
X55325Y100723D01*
X55614Y101803D01*
Y101862D01*
D02*
G37*
G36*
X50866D02*
X47118D01*
Y101803D01*
X47408Y100723D01*
X47967Y99754D01*
X48758Y98963D01*
X49727Y98404D01*
X50807Y98114D01*
X50866D01*
Y101862D01*
D02*
G37*
G36*
X62488Y94799D02*
X58740D01*
Y91051D01*
X62488D01*
Y94799D01*
D02*
G37*
G36*
X57740D02*
X53992D01*
Y91051D01*
X57740D01*
Y94799D01*
D02*
G37*
G36*
X98799D02*
X98740D01*
Y91051D01*
X102488D01*
Y91110D01*
X102199Y92191D01*
X101639Y93160D01*
X100848Y93950D01*
X99880Y94510D01*
X98799Y94799D01*
D02*
G37*
G36*
X102488Y90051D02*
X98740D01*
Y86303D01*
X98799D01*
X99880Y86593D01*
X100848Y87152D01*
X101639Y87943D01*
X102199Y88911D01*
X102488Y89992D01*
Y90051D01*
D02*
G37*
G36*
X109935Y88637D02*
Y85648D01*
X112925D01*
X112697Y86499D01*
X112236Y87297D01*
X111585Y87948D01*
X110786Y88409D01*
X109935Y88637D01*
D02*
G37*
G36*
X108935D02*
X108085Y88409D01*
X107287Y87948D01*
X106635Y87297D01*
X106174Y86499D01*
X105946Y85648D01*
X108935D01*
Y88637D01*
D02*
G37*
G36*
X112925Y84648D02*
X109935D01*
Y81658D01*
X110786Y81886D01*
X111585Y82347D01*
X112236Y82999D01*
X112697Y83797D01*
X112925Y84648D01*
D02*
G37*
G36*
X108935D02*
X105946D01*
X106174Y83797D01*
X106635Y82999D01*
X107287Y82347D01*
X108085Y81886D01*
X108935Y81658D01*
Y84648D01*
D02*
G37*
G36*
X98799Y82988D02*
X98740D01*
Y79240D01*
X102488D01*
Y79299D01*
X102199Y80380D01*
X101639Y81349D01*
X100848Y82139D01*
X99880Y82699D01*
X98799Y82988D01*
D02*
G37*
G36*
X102488Y78240D02*
X98740D01*
Y74492D01*
X98799D01*
X99880Y74782D01*
X100848Y75341D01*
X101639Y76132D01*
X102199Y77100D01*
X102488Y78181D01*
Y78240D01*
D02*
G37*
G36*
X146253Y56118D02*
X146169D01*
Y50697D01*
X151591D01*
Y50780D01*
X151363Y51924D01*
X150917Y53002D01*
X150269Y53971D01*
X149444Y54796D01*
X148474Y55444D01*
X147397Y55891D01*
X146253Y56118D01*
D02*
G37*
G36*
X145169D02*
X145086D01*
X143942Y55891D01*
X142865Y55444D01*
X141895Y54796D01*
X141070Y53971D01*
X140422Y53002D01*
X139976Y51924D01*
X139748Y50780D01*
Y50697D01*
X145169D01*
Y56118D01*
D02*
G37*
G36*
X197457Y49697D02*
X193413D01*
Y45654D01*
X193511D01*
X194667Y45963D01*
X195703Y46561D01*
X196549Y47407D01*
X197147Y48443D01*
X197457Y49599D01*
Y49697D01*
D02*
G37*
G36*
X192413D02*
X188370D01*
Y49599D01*
X188680Y48443D01*
X189278Y47407D01*
X190124Y46561D01*
X191160Y45963D01*
X192315Y45654D01*
X192413D01*
Y49697D01*
D02*
G37*
G36*
X151591D02*
X146169D01*
Y44276D01*
X146253D01*
X147397Y44503D01*
X148474Y44949D01*
X149444Y45597D01*
X150269Y46422D01*
X150917Y47392D01*
X151363Y48470D01*
X151591Y49614D01*
Y49697D01*
D02*
G37*
G36*
X145169D02*
X139748D01*
Y49614D01*
X139976Y48470D01*
X140422Y47392D01*
X141070Y46422D01*
X141895Y45597D01*
X142865Y44949D01*
X143942Y44503D01*
X145086Y44276D01*
X145169D01*
Y49697D01*
D02*
G37*
G36*
X223925Y42339D02*
X220972D01*
Y35933D01*
X227378D01*
Y38886D01*
X223925Y42339D01*
D02*
G37*
G36*
X219972D02*
X217020D01*
X213567Y38886D01*
Y35933D01*
X219972D01*
Y42339D01*
D02*
G37*
G36*
X227378Y34933D02*
X220972D01*
Y28528D01*
X223925D01*
X227378Y31980D01*
Y34933D01*
D02*
G37*
G36*
X219972D02*
X213567D01*
Y31980D01*
X217020Y28528D01*
X219972D01*
Y34933D01*
D02*
G37*
G36*
X62488Y78240D02*
X58740D01*
Y74492D01*
X62488D01*
Y78240D01*
D02*
G37*
G36*
X57740D02*
X53992D01*
Y74492D01*
X57740D01*
Y78240D01*
D02*
G37*
G36*
X51925Y71177D02*
X51866D01*
Y67429D01*
X55614D01*
Y67488D01*
X55325Y68569D01*
X54765Y69538D01*
X53974Y70328D01*
X53006Y70888D01*
X51925Y71177D01*
D02*
G37*
G36*
X50866D02*
X50807D01*
X49727Y70888D01*
X48758Y70328D01*
X47967Y69538D01*
X47408Y68569D01*
X47118Y67488D01*
Y67429D01*
X50866D01*
Y71177D01*
D02*
G37*
G36*
X55614Y66429D02*
X51866D01*
Y62681D01*
X51925D01*
X53006Y62971D01*
X53974Y63530D01*
X54765Y64321D01*
X55325Y65289D01*
X55614Y66370D01*
Y66429D01*
D02*
G37*
G36*
X50866D02*
X47118D01*
Y66370D01*
X47408Y65289D01*
X47967Y64321D01*
X48758Y63530D01*
X49727Y62971D01*
X50807Y62681D01*
X50866D01*
Y66429D01*
D02*
G37*
G36*
X97861Y30528D02*
X97681D01*
Y24122D01*
X104087D01*
Y24302D01*
X103821Y25636D01*
X103301Y26893D01*
X102545Y28024D01*
X101583Y28986D01*
X100452Y29742D01*
X99195Y30262D01*
X97861Y30528D01*
D02*
G37*
G36*
X96681D02*
X96501D01*
X95167Y30262D01*
X93910Y29742D01*
X92779Y28986D01*
X91817Y28024D01*
X91062Y26893D01*
X90541Y25636D01*
X90276Y24302D01*
Y24122D01*
X96681D01*
Y30528D01*
D02*
G37*
G36*
X104087Y23122D02*
X97681D01*
Y16716D01*
X97861D01*
X99195Y16982D01*
X100452Y17503D01*
X101583Y18258D01*
X102545Y19220D01*
X103301Y20351D01*
X103821Y21608D01*
X104087Y22942D01*
Y23122D01*
D02*
G37*
G36*
X96681D02*
X90276D01*
Y22942D01*
X90541Y21608D01*
X91062Y20351D01*
X91817Y19220D01*
X92779Y18258D01*
X93910Y17503D01*
X95167Y16982D01*
X96501Y16716D01*
X96681D01*
Y23122D01*
D02*
G37*
G36*
X146253Y93520D02*
X146169D01*
Y88098D01*
X151591D01*
Y88182D01*
X151363Y89326D01*
X150917Y90403D01*
X150269Y91373D01*
X149444Y92198D01*
X148474Y92846D01*
X147397Y93292D01*
X146253Y93520D01*
D02*
G37*
G36*
X145169D02*
X145086D01*
X143942Y93292D01*
X142865Y92846D01*
X141895Y92198D01*
X141070Y91373D01*
X140422Y90403D01*
X139976Y89326D01*
X139748Y88182D01*
Y88098D01*
X145169D01*
Y93520D01*
D02*
G37*
G36*
X151591Y87098D02*
X146169D01*
Y81677D01*
X146253D01*
X147397Y81905D01*
X148474Y82351D01*
X149444Y82999D01*
X150269Y83824D01*
X150917Y84794D01*
X151363Y85871D01*
X151591Y87015D01*
Y87098D01*
D02*
G37*
G36*
X145169D02*
X139748D01*
Y87015D01*
X139976Y85871D01*
X140422Y84794D01*
X141070Y83824D01*
X141895Y82999D01*
X142865Y82351D01*
X143942Y81905D01*
X145086Y81677D01*
X145169D01*
Y87098D01*
D02*
G37*
G36*
X244595Y62545D02*
Y59555D01*
X247584D01*
X247356Y60406D01*
X246895Y61204D01*
X246244Y61856D01*
X245445Y62317D01*
X244595Y62545D01*
D02*
G37*
G36*
X243595D02*
X242743Y62317D01*
X241945Y61856D01*
X241294Y61204D01*
X240833Y60406D01*
X240605Y59555D01*
X243595D01*
Y62545D01*
D02*
G37*
G36*
X247584Y58555D02*
X244595D01*
Y55566D01*
X245445Y55794D01*
X246244Y56254D01*
X246895Y56906D01*
X247356Y57704D01*
X247584Y58555D01*
D02*
G37*
G36*
X243595D02*
X240605D01*
X240833Y57704D01*
X241294Y56906D01*
X241945Y56254D01*
X242743Y55794D01*
X243595Y55566D01*
Y58555D01*
D02*
G37*
G36*
X24280Y67992D02*
X24122D01*
Y63492D01*
X28622D01*
Y63650D01*
X28281Y64922D01*
X27623Y66062D01*
X26692Y66993D01*
X25552Y67651D01*
X24280Y67992D01*
D02*
G37*
G36*
X23122D02*
X22964D01*
X21692Y67651D01*
X20552Y66993D01*
X19621Y66062D01*
X18963Y64922D01*
X18622Y63650D01*
Y63492D01*
X23122D01*
Y67992D01*
D02*
G37*
G36*
X28622Y62492D02*
X24122D01*
Y57992D01*
X24280D01*
X25552Y58333D01*
X26692Y58991D01*
X27623Y59922D01*
X28281Y61062D01*
X28622Y62334D01*
Y62492D01*
D02*
G37*
G36*
X23122D02*
X18622D01*
Y62334D01*
X18963Y61062D01*
X19621Y59922D01*
X20552Y58991D01*
X21692Y58333D01*
X22964Y57992D01*
X23122D01*
Y62492D01*
D02*
G37*
G36*
X15094Y30528D02*
X8689D01*
Y24122D01*
X15094D01*
Y30528D01*
D02*
G37*
G36*
X7689D02*
X1283D01*
Y24122D01*
X7689D01*
Y30528D01*
D02*
G37*
G36*
X15094Y23122D02*
X8689D01*
Y16716D01*
X15094D01*
Y23122D01*
D02*
G37*
G36*
X7689D02*
X1283D01*
Y16716D01*
X7689D01*
Y23122D01*
D02*
G37*
%LPD*%
D10*
X224410Y161417D02*
X232283Y153543D01*
X137795Y161417D02*
X224410D01*
X114173Y137795D02*
X137795Y161417D01*
X114173Y137795D02*
X114173D01*
X232283Y145669D02*
Y153543D01*
Y145669D02*
X232283Y145669D01*
D11*
X255906Y45433D02*
X275433D01*
X277559Y43307D01*
X240158Y45433D02*
X255906D01*
X277559Y43307D02*
X322835D01*
X342520Y62992D01*
X240158Y100551D02*
X269528Y129921D01*
X315945D01*
X342457Y102425D02*
X342520Y102362D01*
X342457Y102425D02*
Y103409D01*
X316929Y128937D02*
X342457Y103409D01*
Y101236D02*
Y102299D01*
X316024Y74803D02*
X342457Y101236D01*
Y102299D02*
X342520Y102362D01*
D12*
X255591Y45748D02*
X255906Y45433D01*
X255591Y45748D02*
Y74803D01*
X295590D02*
X306024D01*
D13*
X8189Y23622D02*
D03*
X7874Y145669D02*
D03*
D14*
X97181Y23622D02*
D03*
X96866Y145669D02*
D03*
D15*
X220472Y90551D02*
D03*
Y35433D02*
D03*
D16*
X145669Y87598D02*
D03*
Y50197D02*
D03*
D17*
Y117126D02*
D03*
Y20669D02*
D03*
D18*
X306024Y74803D02*
D03*
X316024D02*
D03*
D19*
X58240Y90551D02*
D03*
X91366Y102362D02*
D03*
Y66929D02*
D03*
X58240Y78740D02*
D03*
D20*
X98240Y90551D02*
D03*
X51366Y102362D02*
D03*
Y66929D02*
D03*
X98240Y78740D02*
D03*
D21*
X240158Y45433D02*
D03*
Y25433D02*
D03*
Y35433D02*
D03*
Y100551D02*
D03*
Y80551D02*
D03*
Y90551D02*
D03*
D22*
X295590Y74803D02*
D03*
X255591D02*
D03*
D23*
X342520Y102362D02*
D03*
Y82677D02*
D03*
X23622Y62992D02*
D03*
Y82677D02*
D03*
X192913Y145669D02*
D03*
X212598D02*
D03*
D24*
X342520Y62992D02*
D03*
X23622Y102362D02*
D03*
D25*
X232283Y145669D02*
D03*
D26*
X316929Y128937D02*
D03*
X311024Y99410D02*
D03*
X309055Y13780D02*
D03*
X314961Y43307D02*
D03*
X187008Y87598D02*
D03*
X192913Y117126D02*
D03*
X187008Y20669D02*
D03*
X192913Y50197D02*
D03*
X279528Y110236D02*
D03*
Y41339D02*
D03*
D27*
Y129921D02*
D03*
Y21654D02*
D03*
D28*
X109435Y85148D02*
D03*
X267717Y59055D02*
D03*
X244094D02*
D03*
X114173Y137795D02*
D03*
M02*
